<mxfile host="app.diagrams.net" modified="2021-08-06T07:54:15.077Z" agent="5.0 (Windows NT 6.2; Win64; x64) AppleWebKit/537.36 (KHTML, like Gecko) Chrome/92.0.4515.107 Safari/537.36" etag="33NpdvrXxXaZigIo78vI" version="14.6.12" type="github">
  <diagram id="R2lEEEUBdFMjLlhIrx00" name="Page-1">
    <mxGraphModel dx="1985" dy="1803" grid="1" gridSize="10" guides="1" tooltips="1" connect="1" arrows="1" fold="1" page="1" pageScale="1" pageWidth="850" pageHeight="1100" math="0" shadow="0" extFonts="Permanent Marker^https://fonts.googleapis.com/css?family=Permanent+Marker">
      <root>
        <mxCell id="0" />
        <mxCell id="1" parent="0" />
        <mxCell id="kkchCSLgJflGAybpGici-10" value="VCI" style="rounded=1;whiteSpace=wrap;html=1;" vertex="1" parent="1">
          <mxGeometry x="160" y="240" width="290" height="110" as="geometry" />
        </mxCell>
        <mxCell id="kkchCSLgJflGAybpGici-11" value="1" style="rounded=0;whiteSpace=wrap;html=1;rotation=90;" vertex="1" parent="1">
          <mxGeometry x="240" y="260" width="40" height="20" as="geometry" />
        </mxCell>
        <mxCell id="kkchCSLgJflGAybpGici-2" value="UDE" style="rounded=1;whiteSpace=wrap;html=1;" vertex="1" parent="1">
          <mxGeometry x="152" y="120" width="120" height="60" as="geometry" />
        </mxCell>
        <mxCell id="kkchCSLgJflGAybpGici-4" value="" style="endArrow=classic;html=1;entryX=0.496;entryY=0.765;entryDx=0;entryDy=0;entryPerimeter=0;" edge="1" parent="1" target="kkchCSLgJflGAybpGici-86">
          <mxGeometry width="50" height="50" relative="1" as="geometry">
            <mxPoint x="190" y="118" as="sourcePoint" />
            <mxPoint x="190" y="70" as="targetPoint" />
          </mxGeometry>
        </mxCell>
        <mxCell id="kkchCSLgJflGAybpGici-6" value="CC3200" style="rounded=1;whiteSpace=wrap;html=1;" vertex="1" parent="1">
          <mxGeometry x="360" y="120" width="120" height="60" as="geometry" />
        </mxCell>
        <mxCell id="kkchCSLgJflGAybpGici-7" value="" style="aspect=fixed;perimeter=ellipsePerimeter;html=1;align=center;shadow=0;dashed=0;spacingTop=3;image;image=img/lib/active_directory/laptop_client.svg;" vertex="1" parent="1">
          <mxGeometry x="610" y="-30" width="108" height="120" as="geometry" />
        </mxCell>
        <mxCell id="kkchCSLgJflGAybpGici-12" value="2" style="rounded=0;whiteSpace=wrap;html=1;rotation=90;" vertex="1" parent="1">
          <mxGeometry x="350" y="270" width="40" height="20" as="geometry" />
        </mxCell>
        <mxCell id="kkchCSLgJflGAybpGici-13" value="5" style="ellipse;whiteSpace=wrap;html=1;aspect=fixed;" vertex="1" parent="1">
          <mxGeometry x="360" y="244" width="10" height="10" as="geometry" />
        </mxCell>
        <mxCell id="kkchCSLgJflGAybpGici-14" value="" style="ellipse;whiteSpace=wrap;html=1;aspect=fixed;" vertex="1" parent="1">
          <mxGeometry x="370" y="244" width="10" height="10" as="geometry" />
        </mxCell>
        <mxCell id="kkchCSLgJflGAybpGici-15" value="3" style="rounded=0;whiteSpace=wrap;html=1;rotation=90;" vertex="1" parent="1">
          <mxGeometry x="440" y="284.5" width="40" height="21" as="geometry" />
        </mxCell>
        <mxCell id="kkchCSLgJflGAybpGici-16" value="4" style="rounded=0;whiteSpace=wrap;html=1;rotation=90;" vertex="1" parent="1">
          <mxGeometry x="111.5" y="282.5" width="70" height="25" as="geometry" />
        </mxCell>
        <mxCell id="kkchCSLgJflGAybpGici-18" value="1.MCU烧录引脚&lt;br&gt;2.WIFI烧录引脚&lt;br&gt;3.USB3.0&lt;br&gt;4.DB15&lt;br&gt;5:wifi boot引脚" style="text;html=1;strokeColor=none;fillColor=none;align=center;verticalAlign=middle;whiteSpace=wrap;rounded=0;" vertex="1" parent="1">
          <mxGeometry x="510" y="350" width="110" height="80" as="geometry" />
        </mxCell>
        <mxCell id="kkchCSLgJflGAybpGici-25" value="继电器&lt;br&gt;CH340" style="whiteSpace=wrap;html=1;aspect=fixed;" vertex="1" parent="1">
          <mxGeometry x="620" y="180" width="80" height="80" as="geometry" />
        </mxCell>
        <mxCell id="kkchCSLgJflGAybpGici-26" value="" style="rounded=0;whiteSpace=wrap;html=1;" vertex="1" parent="1">
          <mxGeometry x="600" y="254" width="20" height="6" as="geometry" />
        </mxCell>
        <mxCell id="kkchCSLgJflGAybpGici-27" value="" style="rounded=0;whiteSpace=wrap;html=1;" vertex="1" parent="1">
          <mxGeometry x="600" y="246" width="20" height="6" as="geometry" />
        </mxCell>
        <mxCell id="kkchCSLgJflGAybpGici-29" value="" style="rounded=0;whiteSpace=wrap;html=1;" vertex="1" parent="1">
          <mxGeometry x="600" y="188" width="20" height="6" as="geometry" />
        </mxCell>
        <mxCell id="kkchCSLgJflGAybpGici-30" value="" style="rounded=0;whiteSpace=wrap;html=1;" vertex="1" parent="1">
          <mxGeometry x="600" y="180" width="20" height="6" as="geometry" />
        </mxCell>
        <mxCell id="kkchCSLgJflGAybpGici-31" value="" style="rounded=0;whiteSpace=wrap;html=1;" vertex="1" parent="1">
          <mxGeometry x="600" y="212" width="20" height="6" as="geometry" />
        </mxCell>
        <mxCell id="kkchCSLgJflGAybpGici-32" value="" style="rounded=0;whiteSpace=wrap;html=1;" vertex="1" parent="1">
          <mxGeometry x="600" y="204" width="20" height="6" as="geometry" />
        </mxCell>
        <mxCell id="kkchCSLgJflGAybpGici-33" value="" style="rounded=0;whiteSpace=wrap;html=1;" vertex="1" parent="1">
          <mxGeometry x="600" y="233" width="20" height="6" as="geometry" />
        </mxCell>
        <mxCell id="kkchCSLgJflGAybpGici-34" value="" style="rounded=0;whiteSpace=wrap;html=1;" vertex="1" parent="1">
          <mxGeometry x="600" y="225" width="20" height="6" as="geometry" />
        </mxCell>
        <mxCell id="kkchCSLgJflGAybpGici-35" value="" style="curved=1;endArrow=classic;html=1;exitX=0.607;exitY=-0.044;exitDx=0;exitDy=0;exitPerimeter=0;entryX=0;entryY=0.75;entryDx=0;entryDy=0;" edge="1" parent="1" source="kkchCSLgJflGAybpGici-15" target="kkchCSLgJflGAybpGici-26">
          <mxGeometry width="50" height="50" relative="1" as="geometry">
            <mxPoint x="500" y="320" as="sourcePoint" />
            <mxPoint x="550" y="270" as="targetPoint" />
            <Array as="points">
              <mxPoint x="550" y="320" />
              <mxPoint x="500" y="270" />
            </Array>
          </mxGeometry>
        </mxCell>
        <mxCell id="kkchCSLgJflGAybpGici-37" value="PCAN" style="rounded=1;whiteSpace=wrap;html=1;" vertex="1" parent="1">
          <mxGeometry x="-20" y="121" width="120" height="60" as="geometry" />
        </mxCell>
        <mxCell id="kkchCSLgJflGAybpGici-38" value="" style="rounded=0;whiteSpace=wrap;html=1;rotation=90;" vertex="1" parent="1">
          <mxGeometry x="-33" y="135" width="20" height="7" as="geometry" />
        </mxCell>
        <mxCell id="kkchCSLgJflGAybpGici-39" value="" style="rounded=0;whiteSpace=wrap;html=1;rotation=90;" vertex="1" parent="1">
          <mxGeometry x="-33" y="163" width="20" height="7" as="geometry" />
        </mxCell>
        <mxCell id="kkchCSLgJflGAybpGici-40" value="CH1" style="text;html=1;strokeColor=none;fillColor=none;align=center;verticalAlign=middle;whiteSpace=wrap;rounded=0;" vertex="1" parent="1">
          <mxGeometry x="-13" y="130" width="13" height="6" as="geometry" />
        </mxCell>
        <mxCell id="kkchCSLgJflGAybpGici-41" value="CH2" style="text;html=1;strokeColor=none;fillColor=none;align=center;verticalAlign=middle;whiteSpace=wrap;rounded=0;" vertex="1" parent="1">
          <mxGeometry x="-13" y="172" width="13" height="6" as="geometry" />
        </mxCell>
        <mxCell id="kkchCSLgJflGAybpGici-42" value="CAN总线" style="ellipse;shape=cloud;whiteSpace=wrap;html=1;" vertex="1" parent="1">
          <mxGeometry x="-170" y="198" width="100" height="41" as="geometry" />
        </mxCell>
        <mxCell id="kkchCSLgJflGAybpGici-43" value="LIN总线" style="ellipse;shape=cloud;whiteSpace=wrap;html=1;" vertex="1" parent="1">
          <mxGeometry x="-80" y="199" width="93" height="40" as="geometry" />
        </mxCell>
        <mxCell id="kkchCSLgJflGAybpGici-49" value="" style="endArrow=classic;html=1;exitX=0.5;exitY=1;exitDx=0;exitDy=0;" edge="1" parent="1" source="kkchCSLgJflGAybpGici-16">
          <mxGeometry width="50" height="50" relative="1" as="geometry">
            <mxPoint x="40" y="310" as="sourcePoint" />
            <mxPoint x="90" y="260" as="targetPoint" />
          </mxGeometry>
        </mxCell>
        <mxCell id="kkchCSLgJflGAybpGici-50" value="" style="endArrow=classic;html=1;exitX=0.5;exitY=1;exitDx=0;exitDy=0;" edge="1" parent="1" source="kkchCSLgJflGAybpGici-16">
          <mxGeometry width="50" height="50" relative="1" as="geometry">
            <mxPoint x="130" y="300" as="sourcePoint" />
            <mxPoint x="70" y="300" as="targetPoint" />
          </mxGeometry>
        </mxCell>
        <mxCell id="kkchCSLgJflGAybpGici-51" value="" style="endArrow=classic;html=1;exitX=0.5;exitY=1;exitDx=0;exitDy=0;" edge="1" parent="1" source="kkchCSLgJflGAybpGici-16">
          <mxGeometry width="50" height="50" relative="1" as="geometry">
            <mxPoint x="50" y="370" as="sourcePoint" />
            <mxPoint x="90" y="330" as="targetPoint" />
          </mxGeometry>
        </mxCell>
        <mxCell id="kkchCSLgJflGAybpGici-53" value="DB9-male3" style="rounded=0;whiteSpace=wrap;html=1;rotation=90;" vertex="1" parent="1">
          <mxGeometry x="57" y="328" width="37" height="28" as="geometry" />
        </mxCell>
        <mxCell id="kkchCSLgJflGAybpGici-56" value="DB9-male2" style="rounded=0;whiteSpace=wrap;html=1;rotation=90;" vertex="1" parent="1">
          <mxGeometry x="34.25" y="285.75" width="41.5" height="29" as="geometry" />
        </mxCell>
        <mxCell id="kkchCSLgJflGAybpGici-57" value="DB9-male1" style="rounded=0;whiteSpace=wrap;html=1;rotation=90;" vertex="1" parent="1">
          <mxGeometry x="57.88" y="244.88" width="36" height="27.25" as="geometry" />
        </mxCell>
        <mxCell id="kkchCSLgJflGAybpGici-59" value="" style="curved=1;endArrow=classic;html=1;exitX=0.4;exitY=0.1;exitDx=0;exitDy=0;exitPerimeter=0;entryX=0.5;entryY=1;entryDx=0;entryDy=0;" edge="1" parent="1" source="kkchCSLgJflGAybpGici-43" target="kkchCSLgJflGAybpGici-39">
          <mxGeometry width="50" height="50" relative="1" as="geometry">
            <mxPoint x="-110" y="200" as="sourcePoint" />
            <mxPoint x="-27" y="180" as="targetPoint" />
            <Array as="points">
              <mxPoint x="-50" y="190" />
              <mxPoint x="-43" y="170" />
            </Array>
          </mxGeometry>
        </mxCell>
        <mxCell id="kkchCSLgJflGAybpGici-60" value="" style="curved=1;endArrow=classic;html=1;exitX=0.625;exitY=0.2;exitDx=0;exitDy=0;exitPerimeter=0;entryX=0.5;entryY=1;entryDx=0;entryDy=0;" edge="1" parent="1" source="kkchCSLgJflGAybpGici-42" target="kkchCSLgJflGAybpGici-38">
          <mxGeometry width="50" height="50" relative="1" as="geometry">
            <mxPoint x="-160" y="240" as="sourcePoint" />
            <mxPoint x="-110" y="190" as="targetPoint" />
            <Array as="points">
              <mxPoint x="-100" y="160" />
            </Array>
          </mxGeometry>
        </mxCell>
        <mxCell id="kkchCSLgJflGAybpGici-63" value="" style="curved=1;endArrow=classic;html=1;exitX=0.25;exitY=1;exitDx=0;exitDy=0;entryX=0.55;entryY=0.95;entryDx=0;entryDy=0;entryPerimeter=0;" edge="1" parent="1" source="kkchCSLgJflGAybpGici-57" target="kkchCSLgJflGAybpGici-42">
          <mxGeometry width="50" height="50" relative="1" as="geometry">
            <mxPoint x="-110" y="310" as="sourcePoint" />
            <mxPoint x="-60" y="260" as="targetPoint" />
            <Array as="points">
              <mxPoint x="-30" y="270" />
              <mxPoint x="-110" y="260" />
            </Array>
          </mxGeometry>
        </mxCell>
        <mxCell id="kkchCSLgJflGAybpGici-64" value="" style="curved=1;endArrow=classic;html=1;entryX=0.426;entryY=0.902;entryDx=0;entryDy=0;entryPerimeter=0;exitX=0.5;exitY=1;exitDx=0;exitDy=0;" edge="1" parent="1" source="kkchCSLgJflGAybpGici-56" target="kkchCSLgJflGAybpGici-42">
          <mxGeometry width="50" height="50" relative="1" as="geometry">
            <mxPoint x="60" y="260" as="sourcePoint" />
            <mxPoint x="-120" y="240" as="targetPoint" />
            <Array as="points">
              <mxPoint x="-50" y="300" />
              <mxPoint x="-110" y="270" />
            </Array>
          </mxGeometry>
        </mxCell>
        <mxCell id="kkchCSLgJflGAybpGici-65" value="CH1" style="text;html=1;strokeColor=none;fillColor=none;align=center;verticalAlign=middle;whiteSpace=wrap;rounded=0;" vertex="1" parent="1">
          <mxGeometry x="-83" y="250.5" width="40" height="20" as="geometry" />
        </mxCell>
        <mxCell id="kkchCSLgJflGAybpGici-66" value="CH2" style="text;html=1;strokeColor=none;fillColor=none;align=center;verticalAlign=middle;whiteSpace=wrap;rounded=0;" vertex="1" parent="1">
          <mxGeometry x="-90" y="282.5" width="40" height="20" as="geometry" />
        </mxCell>
        <mxCell id="kkchCSLgJflGAybpGici-67" value="" style="curved=1;endArrow=classic;html=1;entryX=0.55;entryY=0.95;entryDx=0;entryDy=0;entryPerimeter=0;" edge="1" parent="1" target="kkchCSLgJflGAybpGici-43">
          <mxGeometry width="50" height="50" relative="1" as="geometry">
            <mxPoint x="60" y="340" as="sourcePoint" />
            <mxPoint x="-40" y="300" as="targetPoint" />
            <Array as="points">
              <mxPoint x="20" y="340" />
              <mxPoint x="-29" y="290" />
            </Array>
          </mxGeometry>
        </mxCell>
        <mxCell id="kkchCSLgJflGAybpGici-68" value="CH3" style="text;html=1;strokeColor=none;fillColor=none;align=center;verticalAlign=middle;whiteSpace=wrap;rounded=0;" vertex="1" parent="1">
          <mxGeometry x="-13" y="315" width="40" height="20" as="geometry" />
        </mxCell>
        <mxCell id="kkchCSLgJflGAybpGici-70" value="" style="shape=flexArrow;endArrow=classic;html=1;exitX=0.5;exitY=1;exitDx=0;exitDy=0;entryX=0.5;entryY=1;entryDx=0;entryDy=0;fillColor=#CCCCFF;" edge="1" parent="1" source="kkchCSLgJflGAybpGici-2" target="kkchCSLgJflGAybpGici-11">
          <mxGeometry width="50" height="50" relative="1" as="geometry">
            <mxPoint x="210" y="490" as="sourcePoint" />
            <mxPoint x="280" y="540" as="targetPoint" />
          </mxGeometry>
        </mxCell>
        <mxCell id="kkchCSLgJflGAybpGici-71" value="" style="shape=flexArrow;endArrow=classic;html=1;exitX=0.75;exitY=1;exitDx=0;exitDy=0;fillColor=#CCCCFF;" edge="1" parent="1" source="kkchCSLgJflGAybpGici-6">
          <mxGeometry width="50" height="50" relative="1" as="geometry">
            <mxPoint x="249" y="190" as="sourcePoint" />
            <mxPoint x="380" y="280" as="targetPoint" />
          </mxGeometry>
        </mxCell>
        <mxCell id="kkchCSLgJflGAybpGici-72" value="" style="curved=1;endArrow=classic;html=1;fillColor=#CCCCFF;exitX=0.5;exitY=0;exitDx=0;exitDy=0;entryX=0.278;entryY=0.583;entryDx=0;entryDy=0;entryPerimeter=0;" edge="1" parent="1" source="kkchCSLgJflGAybpGici-6" target="kkchCSLgJflGAybpGici-7">
          <mxGeometry width="50" height="50" relative="1" as="geometry">
            <mxPoint x="450" y="110" as="sourcePoint" />
            <mxPoint x="500" y="60" as="targetPoint" />
            <Array as="points">
              <mxPoint x="500" y="110" />
              <mxPoint x="450" y="60" />
            </Array>
          </mxGeometry>
        </mxCell>
        <mxCell id="kkchCSLgJflGAybpGici-73" value="" style="curved=1;endArrow=classic;html=1;fillColor=#CCCCFF;exitX=1;exitY=0.5;exitDx=0;exitDy=0;" edge="1" parent="1" source="kkchCSLgJflGAybpGici-2">
          <mxGeometry width="50" height="50" relative="1" as="geometry">
            <mxPoint x="280" y="90" as="sourcePoint" />
            <mxPoint x="640" y="40" as="targetPoint" />
            <Array as="points">
              <mxPoint x="350" y="110" />
              <mxPoint x="370" y="90" />
              <mxPoint x="280" y="40" />
            </Array>
          </mxGeometry>
        </mxCell>
        <mxCell id="kkchCSLgJflGAybpGici-74" value="" style="curved=1;endArrow=classic;html=1;fillColor=#CCCCFF;exitX=1;exitY=0.5;exitDx=0;exitDy=0;" edge="1" parent="1" source="kkchCSLgJflGAybpGici-37">
          <mxGeometry width="50" height="50" relative="1" as="geometry">
            <mxPoint x="80" y="80" as="sourcePoint" />
            <mxPoint x="640" y="40" as="targetPoint" />
            <Array as="points">
              <mxPoint x="130" y="80" />
              <mxPoint x="210" y="30" />
            </Array>
          </mxGeometry>
        </mxCell>
        <mxCell id="kkchCSLgJflGAybpGici-75" value="" style="curved=1;endArrow=classic;html=1;fillColor=#CCCCFF;exitX=1;exitY=0.5;exitDx=0;exitDy=0;entryX=1;entryY=1;entryDx=0;entryDy=0;" edge="1" parent="1" source="kkchCSLgJflGAybpGici-25" target="kkchCSLgJflGAybpGici-7">
          <mxGeometry width="50" height="50" relative="1" as="geometry">
            <mxPoint x="730" y="220" as="sourcePoint" />
            <mxPoint x="702" y="73" as="targetPoint" />
            <Array as="points">
              <mxPoint x="750" y="190" />
              <mxPoint x="750" y="150" />
            </Array>
          </mxGeometry>
        </mxCell>
        <mxCell id="kkchCSLgJflGAybpGici-77" value="12V电源" style="shape=tape;whiteSpace=wrap;html=1;" vertex="1" parent="1">
          <mxGeometry x="300" y="186" width="80" height="50" as="geometry" />
        </mxCell>
        <mxCell id="kkchCSLgJflGAybpGici-80" value="" style="endArrow=classic;html=1;fillColor=#CCCCFF;exitX=0.5;exitY=0;exitDx=0;exitDy=0;entryX=0;entryY=0.65;entryDx=0;entryDy=0;entryPerimeter=0;" edge="1" parent="1" source="kkchCSLgJflGAybpGici-39" target="kkchCSLgJflGAybpGici-77">
          <mxGeometry width="50" height="50" relative="1" as="geometry">
            <mxPoint x="100" y="240" as="sourcePoint" />
            <mxPoint x="150" y="190" as="targetPoint" />
          </mxGeometry>
        </mxCell>
        <mxCell id="kkchCSLgJflGAybpGici-81" value="" style="endArrow=classic;html=1;fillColor=#CCCCFF;exitX=1;exitY=0.65;exitDx=0;exitDy=0;exitPerimeter=0;entryX=0;entryY=1;entryDx=0;entryDy=0;" edge="1" parent="1">
          <mxGeometry width="50" height="50" relative="1" as="geometry">
            <mxPoint x="380" y="216.5" as="sourcePoint" />
            <mxPoint x="600" y="237" as="targetPoint" />
          </mxGeometry>
        </mxCell>
        <mxCell id="kkchCSLgJflGAybpGici-82" value="" style="endArrow=classic;html=1;fillColor=#CCCCFF;exitX=0;exitY=0.75;exitDx=0;exitDy=0;entryX=1;entryY=0.5;entryDx=0;entryDy=0;entryPerimeter=0;" edge="1" parent="1" source="kkchCSLgJflGAybpGici-34" target="kkchCSLgJflGAybpGici-77">
          <mxGeometry width="50" height="50" relative="1" as="geometry">
            <mxPoint x="360" y="460" as="sourcePoint" />
            <mxPoint x="410" y="410" as="targetPoint" />
          </mxGeometry>
        </mxCell>
        <mxCell id="kkchCSLgJflGAybpGici-83" value="" style="endArrow=classic;html=1;fillColor=#CCCCFF;exitX=0;exitY=0.5;exitDx=0;exitDy=0;exitPerimeter=0;entryX=0.25;entryY=0;entryDx=0;entryDy=0;" edge="1" parent="1" source="kkchCSLgJflGAybpGici-77" target="kkchCSLgJflGAybpGici-39">
          <mxGeometry width="50" height="50" relative="1" as="geometry">
            <mxPoint x="170" y="470" as="sourcePoint" />
            <mxPoint x="220" y="420" as="targetPoint" />
          </mxGeometry>
        </mxCell>
        <mxCell id="kkchCSLgJflGAybpGici-84" value="" style="endArrow=classic;html=1;fillColor=#CCCCFF;exitX=0.5;exitY=1;exitDx=0;exitDy=0;entryX=0;entryY=0.75;entryDx=0;entryDy=0;" edge="1" parent="1">
          <mxGeometry width="50" height="50" relative="1" as="geometry">
            <mxPoint x="376" y="252" as="sourcePoint" />
            <mxPoint x="601" y="214.5" as="targetPoint" />
          </mxGeometry>
        </mxCell>
        <mxCell id="kkchCSLgJflGAybpGici-85" value="" style="endArrow=classic;html=1;fillColor=#CCCCFF;exitX=0;exitY=0.5;exitDx=0;exitDy=0;entryX=0.5;entryY=0;entryDx=0;entryDy=0;" edge="1" parent="1">
          <mxGeometry width="50" height="50" relative="1" as="geometry">
            <mxPoint x="600" y="211" as="sourcePoint" />
            <mxPoint x="365" y="248" as="targetPoint" />
          </mxGeometry>
        </mxCell>
        <mxCell id="kkchCSLgJflGAybpGici-86" value="24V电源" style="shape=tape;whiteSpace=wrap;html=1;" vertex="1" parent="1">
          <mxGeometry x="152" y="-10" width="73" height="50" as="geometry" />
        </mxCell>
      </root>
    </mxGraphModel>
  </diagram>
</mxfile>
